# xmcd CD database file
#
# Track frame offsets:
#	150
#	16084
#	30167
#	46245
#	60000
#	74725
#	91227
#	105180
#	119752
#	134420
#	149628
#	165039
#	177998
#	190257
#	202603
#	216013
#	231375
#	249694
#	266065
#
# Disc length: 3761 seconds
#
# Revision: 1
# Processed by: cddbd v1.5.2PL0 Copyright (c) Steve Scherf et al.
# Submitted via: CDex 1.81
#
DISCID=010eaf13
DTITLE=Various Artist - MNM Big Hits 2018.4 CD 2
DYEAR=2018
DGENRE=Top 40
TTITLE0=Calvin Harris and Dua Lipa - One Kiss
TTITLE1=Imagine Dragons - Natural
TTITLE2=Maroon 5 Feat. Cardi B - Girls Like You
TTITLE3=Armin Van Buuren - Blah Blah Blah
TTITLE4=Dean Lewis - Be Alright
TTITLE5=Bazart - Grip (Omarm Me)
TTITLE6=Sia, Diplo and Labrinth (LSD) - Thunderclouds
TTITLE7=Dimitri Vegas and Like Mike feat. Wiz Khalifa - When I Grow Up
TTITLE8=Ariana Grande - God Is A Woman
TTITLE9=Marshmello and Anne-Marie - Friends
TTITLE10=Rudimental X Major Lazer feat. Anne-Marie and Mr Eazi - Let Me Live
TTITLE11=The Chainsmokers feat. Emily Warren - Side Effects
TTITLE12=Loud Luxury feat. Brando - Body
TTITLE13=El Profesor - Bella Ciao (HUGEL Remix)
TTITLE14=Bob Sinclar feat. Tonino Speciale - I Believe
TTITLE15=A$AP Rocky feat. Skepta - Praise The Lord (Da Shine)
TTITLE16=Jasper Steverlinck - Broken
TTITLE17=Silvy - Red
TTITLE18=Martin Garrix feat. Khalid - Ocean
EXTD=YEAR: 2018
EXTT0=
EXTT1=
EXTT2=
EXTT3=
EXTT4=
EXTT5=
EXTT6=
EXTT7=
EXTT8=
EXTT9=
EXTT10=
EXTT11=
EXTT12=
EXTT13=
EXTT14=
EXTT15=
EXTT16=
EXTT17=
EXTT18=
PLAYORDER=
